<mxfile host="Electron" agent="Mozilla/5.0 (Windows NT 10.0; Win64; x64) AppleWebKit/537.36 (KHTML, like Gecko) draw.io/24.7.17 Chrome/128.0.6613.36 Electron/32.0.1 Safari/537.36" version="24.7.17">
  <diagram name="Pagina-1" id="vr18VHeQ5g_o800HFqUH">
    <mxGraphModel dx="330" dy="191" grid="1" gridSize="10" guides="1" tooltips="1" connect="1" arrows="1" fold="1" page="1" pageScale="1" pageWidth="827" pageHeight="1169" math="1" shadow="0">
      <root>
        <mxCell id="0" />
        <mxCell id="1" parent="0" />
        <mxCell id="zsQWKc3qnmtY2k9UsGA7-16" style="edgeStyle=orthogonalEdgeStyle;rounded=0;orthogonalLoop=1;jettySize=auto;html=1;entryX=0.5;entryY=0;entryDx=0;entryDy=0;curved=1;" edge="1" parent="1" source="zsQWKc3qnmtY2k9UsGA7-11" target="zsQWKc3qnmtY2k9UsGA7-14">
          <mxGeometry relative="1" as="geometry" />
        </mxCell>
        <mxCell id="zsQWKc3qnmtY2k9UsGA7-11" value="" style="ellipse;whiteSpace=wrap;html=1;aspect=fixed;fillColor=none;" vertex="1" parent="1">
          <mxGeometry x="260" y="300" width="40" height="40" as="geometry" />
        </mxCell>
        <mxCell id="zsQWKc3qnmtY2k9UsGA7-19" style="edgeStyle=orthogonalEdgeStyle;rounded=0;orthogonalLoop=1;jettySize=auto;html=1;entryX=1;entryY=0.5;entryDx=0;entryDy=0;curved=1;" edge="1" parent="1" source="zsQWKc3qnmtY2k9UsGA7-14" target="zsQWKc3qnmtY2k9UsGA7-18">
          <mxGeometry relative="1" as="geometry">
            <Array as="points">
              <mxPoint x="335" y="390" />
            </Array>
          </mxGeometry>
        </mxCell>
        <mxCell id="zsQWKc3qnmtY2k9UsGA7-14" value="" style="rounded=0;whiteSpace=wrap;html=1;fillColor=#000000;" vertex="1" parent="1">
          <mxGeometry x="320" y="350" width="30" height="10" as="geometry" />
        </mxCell>
        <mxCell id="zsQWKc3qnmtY2k9UsGA7-17" style="edgeStyle=orthogonalEdgeStyle;rounded=0;orthogonalLoop=1;jettySize=auto;html=1;entryX=0;entryY=0.5;entryDx=0;entryDy=0;curved=1;" edge="1" parent="1" source="zsQWKc3qnmtY2k9UsGA7-15" target="zsQWKc3qnmtY2k9UsGA7-11">
          <mxGeometry relative="1" as="geometry">
            <Array as="points">
              <mxPoint x="225" y="320" />
            </Array>
          </mxGeometry>
        </mxCell>
        <mxCell id="zsQWKc3qnmtY2k9UsGA7-15" value="" style="rounded=0;whiteSpace=wrap;html=1;fillColor=#000000;" vertex="1" parent="1">
          <mxGeometry x="210" y="350" width="30" height="10" as="geometry" />
        </mxCell>
        <mxCell id="zsQWKc3qnmtY2k9UsGA7-18" value="" style="ellipse;whiteSpace=wrap;html=1;aspect=fixed;fillColor=none;" vertex="1" parent="1">
          <mxGeometry x="260" y="370" width="40" height="40" as="geometry" />
        </mxCell>
        <mxCell id="zsQWKc3qnmtY2k9UsGA7-20" style="edgeStyle=orthogonalEdgeStyle;rounded=0;orthogonalLoop=1;jettySize=auto;html=1;entryX=0.5;entryY=1;entryDx=0;entryDy=0;curved=1;" edge="1" parent="1" source="zsQWKc3qnmtY2k9UsGA7-18" target="zsQWKc3qnmtY2k9UsGA7-15">
          <mxGeometry relative="1" as="geometry" />
        </mxCell>
        <mxCell id="zsQWKc3qnmtY2k9UsGA7-21" value="" style="shape=waypoint;sketch=0;fillStyle=solid;size=6;pointerEvents=1;points=[];fillColor=none;resizable=0;rotatable=0;perimeter=centerPerimeter;snapToPoint=1;" vertex="1" parent="1">
          <mxGeometry x="270" y="310" width="20" height="20" as="geometry" />
        </mxCell>
        <mxCell id="zsQWKc3qnmtY2k9UsGA7-22" value="\(t_1\)" style="text;html=1;align=center;verticalAlign=middle;whiteSpace=wrap;rounded=0;" vertex="1" parent="1">
          <mxGeometry x="180" y="345" width="30" height="20" as="geometry" />
        </mxCell>
        <mxCell id="zsQWKc3qnmtY2k9UsGA7-23" value="\(t_2\)" style="text;html=1;align=center;verticalAlign=middle;whiteSpace=wrap;rounded=0;" vertex="1" parent="1">
          <mxGeometry x="350" y="345" width="30" height="20" as="geometry" />
        </mxCell>
        <mxCell id="zsQWKc3qnmtY2k9UsGA7-24" value="\(p_1\)" style="text;html=1;align=center;verticalAlign=middle;whiteSpace=wrap;rounded=0;" vertex="1" parent="1">
          <mxGeometry x="265" y="280" width="30" height="20" as="geometry" />
        </mxCell>
        <mxCell id="zsQWKc3qnmtY2k9UsGA7-25" value="\(p_2\)" style="text;html=1;align=center;verticalAlign=middle;whiteSpace=wrap;rounded=0;" vertex="1" parent="1">
          <mxGeometry x="265" y="410" width="30" height="20" as="geometry" />
        </mxCell>
      </root>
    </mxGraphModel>
  </diagram>
</mxfile>
